<svg xmlns="http://www.w3.org/2000/svg" xmlns:xlink="http://www.w3.org/1999/xlink" xml:space="preserve" width="57px" height="70px" version="1.1" style="shape-rendering:geometricPrecision; text-rendering:geometricPrecision; image-rendering:optimizeQuality; fill-rule:evenodd; clip-rule:evenodd" viewBox="0 0 0.89 1.09">
 <defs>
  <style type="text/css">
   <![CDATA[
    .fil0 {fill:#727271;fill-rule:nonzero}
   ]]>
  </style>
 </defs>
 <g id="Слой_x0020_1">
  <metadata id="CorelCorpID_0Corel-Layer"/>
  <path class="fil0" d="M0.87 0.11l-0.26 0c0,-0.02 -0.01,-0.06 -0.03,-0.09 -0.02,-0.01 -0.04,-0.02 -0.06,-0.02l-0.19 0c-0.02,0 -0.04,0.01 -0.06,0.02 -0.02,
     0.03 -0.03,0.07 -0.03,0.09l-0.22 0c-0.01,0 -0.02,0.01 -0.02,0.02 0,0.01 0.01,0.02 0.02,0.02l0.04 0 0.03 0.85c0,0.03 0.02,0.09 0.09,0.09l0.53 0c0.07,0 0.09,
      -0.06 0.09,-0.09l0.03 -0.85 0.04 0c0.01,0 0.02,-0.01 0.02,-0.02 0,-0.01 -0.01,-0.02 -0.02,-0.02zm-0.59 0.82c0,0.01 -0.01,0.01 -0.02,0.01 -0.01,0 -0.02,0 -0.02,
      -0.01l0 -0.62c0,-0.01 0.01,-0.01 0.02,-0.01 0.01,0 0.02,0 0.02,0.01l0 0.62zm0.18 0c0,0.01 -0.01,0.01 -0.02,0.01 -0.01,0 -0.01,0 -0.01,-0.01l0 -0.62c0,-0.01 0,
      -0.01 0.01,-0.01 0.01,0 0.02,0 0.02,0.01l0 0.62zm0.19 0c0,0.01 -0.01,0.01 -0.02,0.01 -0.01,0 -0.02,0 -0.02,-0.01l0 -0.62c0,-0.01 0.01,-0.01 0.02,-0.01 0.01,
      0 0.02,0 0.02,0.01l0 0.62zm-0.35 -0.88c0.01,-0.01 0.02,-0.01 0.03,-0.01l0.19 0c0.01,0 0.02,0 0.03,0.01 0.01,0.01 0.02,0.04 0.02,0.06l-0.29 0c0,-0.02 0.01,-0.05 0.02,-0.06z"/>
 </g>
</svg>